<svg width="81" height="22" viewBox="0 0 81 22" fill="none" xmlns="http://www.w3.org/2000/svg">
<path d="M30.3837 18.1763C29.2174 20.5854 28.8602 20.421 27.8534 20.421C26.8526 20.4171 30.5983 22.2768 32.1745 21.9648C32.9837 21.808 34.4091 21.3208 35.059 19.9237C36.0969 17.703 35.7336 16.1478 35.7553 16.0583C35.754 16.0577 31.5481 15.7721 30.3837 18.1763Z" fill="#FF7966"/>
<path d="M20.3022 18.0261C19.2345 20.4725 18.8737 20.3282 17.8611 20.3686C16.861 20.402 20.6842 22.1097 22.2374 21.7391C23.0416 21.547 24.4453 21.0056 25.0418 19.5852C25.9948 17.3223 25.5701 15.7866 25.5869 15.6989C25.5869 15.6989 21.3724 15.5855 20.3022 18.0261Z" fill="#FF7966"/>
<path d="M25.6005 15.6497C25.6117 15.6104 25.6186 15.5879 25.6005 15.6497V15.6497Z" fill="#FF7966"/>
<path d="M25.5869 15.6979C25.595 15.6692 25.5969 15.6648 25.6013 15.6498C25.5944 15.6735 25.5869 15.6979 25.5869 15.6979Z" fill="#FF7966"/>
<path d="M16.7982 13.9835C16.7901 13.9953 16.7801 14.0097 16.7551 14.0471C16.7551 14.0471 16.782 14.0066 16.7982 13.9835Z" fill="#FF7966"/>
<path d="M11.1593 14.3996C9.38165 16.2775 9.10516 16.0241 8.17011 15.7191C7.23755 15.4173 10.1845 18.2656 11.7272 18.4465C12.524 18.5378 13.9849 18.5107 14.9894 17.4173C16.5958 15.67 16.7032 14.1216 16.7546 14.0485C16.7546 14.0485 12.9352 12.5186 11.1593 14.3996Z" fill="#FF7966"/>
<path d="M16.7979 13.9832C16.8084 13.9671 16.8096 13.9653 16.7979 13.9832V13.9832Z" fill="#FF7966"/>
<path d="M14.4454 6.27059C14.1652 8.86174 17.7583 10.8601 17.7583 10.8601C17.7831 10.7794 18.8843 9.7056 19.1789 7.3261C19.3611 5.837 18.4447 4.68443 17.8606 4.11722C16.7389 3.02704 12.7074 2.5519 13.5309 3.09194C14.3562 3.62569 14.7226 3.67683 14.4454 6.27059Z" fill="#FF7966"/>
<path d="M17.7583 10.8604C17.7583 10.8604 17.7502 10.8878 17.7433 10.914C17.7471 10.8984 17.7496 10.8916 17.7583 10.8604Z" fill="#FF7966"/>
<path d="M17.7447 10.915C17.7304 10.963 17.7347 10.9487 17.7447 10.915V10.915Z" fill="#FF7966"/>
<path d="M10.3305 6.83044C10.3237 6.85724 10.3218 6.86294 10.3181 6.87534C10.3237 6.85354 10.3305 6.83044 10.3305 6.83044Z" fill="#FF7966"/>
<path d="M7.56772 2.95232C7.31792 5.12951 10.3319 6.82975 10.3319 6.82975C10.3529 6.76542 11.2855 5.85735 11.5441 3.85911C11.7046 2.61263 10.9439 1.64157 10.4571 1.16325C9.51033 0.234385 6.12192 -0.186564 6.81872 0.271575C7.50637 0.726552 7.82011 0.774495 7.56772 2.95232Z" fill="#FF7966"/>
<path d="M10.3178 6.87549C10.3059 6.91669 10.3097 6.90419 10.3178 6.87549V6.87549Z" fill="#FF7966"/>
<path d="M3.39307 9.10683C1.4653 10.0925 1.31042 9.80952 0.656243 9.30222C-0.000324011 8.80057 1.55165 11.8947 2.72465 12.4788C3.33609 12.7769 4.49803 13.1752 5.59912 12.5934C7.36015 11.6558 7.86852 10.4585 7.92868 10.4225C7.92868 10.4225 5.31894 8.12181 3.39307 9.10683Z" fill="#FF7966"/>
<path d="M7.94859 10.4053C7.97859 10.3822 8.01479 10.3535 7.94859 10.4053V10.4053Z" fill="#FF7966"/>
<path d="M35.148 12.3281C35.148 12.3281 35.1461 12.3693 35.1442 12.398C35.1449 12.3836 35.1461 12.3693 35.148 12.3281Z" fill="#FF7966"/>
<path d="M29.2649 5.6788C30.1992 6.01152 30.5732 5.98072 30.8721 8.58327C31.1758 11.1915 35.149 12.329 35.149 12.329C35.1534 12.2414 35.9917 10.9269 35.7499 8.53359C35.5967 7.0338 34.4478 6.10613 33.7427 5.69223C32.3972 4.88493 28.341 5.34225 29.2649 5.6788Z" fill="#FF7966"/>
<path d="M21.0556 4.59154C21.9188 5.0837 22.2939 5.11833 22.1705 7.73301C22.0372 10.3544 25.7723 12.1397 25.7723 12.1397C25.789 12.0565 26.8356 10.8976 26.9856 8.498C27.0744 6.99437 26.0978 5.89232 25.4709 5.3628C24.2686 4.33565 20.1963 4.11449 21.0556 4.59154Z" fill="#FF7966"/>
<path d="M25.7667 12.1768C25.7486 12.2573 25.7573 12.2186 25.7667 12.1768V12.1768Z" fill="#FF7966"/>
<path d="M25.7739 12.1412C25.7739 12.1412 25.7702 12.1575 25.7658 12.1768C25.7689 12.1631 25.7689 12.1618 25.7739 12.1412Z" fill="#FF7966"/>
<path d="M38.2729 13.6931C37.0966 13.228 34.9512 13.7265 33.7223 13.7392C30.1652 13.7536 26.611 13.5292 23.0906 13.0044C14.7466 11.761 6.10629 8.37522 1.59996 0.688354C1.68362 0.830145 1.51619 1.12759 1.59996 1.27315C6.12929 9.01338 14.7306 12.2758 23.0906 13.5909C26.4958 14.1228 29.9501 14.3143 33.3924 14.32C34.715 14.32 37.0173 13.7762 38.2722 14.2727C38.2133 14.2551 38.3392 13.7202 38.2729 13.6931Z" fill="#FF7966"/>
<path d="M40.5033 12.5865C39.6036 12.5865 38.8812 13.3227 38.8812 14.2345C38.8812 14.249 38.8849 14.2622 38.8855 14.278C38.8855 14.2924 38.8812 14.3057 38.8812 14.3214C38.8812 15.2339 39.6042 15.9693 40.4983 15.9693C41.398 15.9693 42.1234 15.2346 42.1234 14.3214C42.1234 14.307 42.1197 14.2937 42.1191 14.278C42.1191 14.2635 42.1234 14.2502 42.1234 14.2345C42.1228 13.3221 41.3967 12.5865 40.5033 12.5865Z" fill="#FF7966"/>
<path d="M45.2431 15.9769C45.2431 15.9769 45.2344 15.9444 45.2269 15.917C45.2312 15.932 45.2331 15.9419 45.2431 15.9769Z" fill="#FF7966"/>
<path d="M45.2281 15.9175C45.2175 15.8781 45.22 15.8869 45.2281 15.9175V15.9175Z" fill="#FF7966"/>
<path d="M53.1434 20.3349C52.139 20.3349 51.7899 20.4969 50.6193 18.0928C49.4548 15.6863 45.2459 15.9787 45.2459 15.9787C45.2701 16.0594 44.9061 17.6204 45.9497 19.8409C46.5939 21.233 48.02 21.7207 48.826 21.8833C50.4059 22.1895 54.1498 20.3349 53.1434 20.3349Z" fill="#FF7966"/>
<path d="M63.1371 20.2768C62.1265 20.2359 61.7699 20.3896 60.6992 17.9389C59.6265 15.4927 55.4083 15.6093 55.4083 15.6093C55.4344 15.6994 55.0066 17.2345 55.9596 19.5018C56.556 20.9102 57.9604 21.461 58.7615 21.6463C60.3166 22.025 64.1442 20.3178 63.1371 20.2768Z" fill="#FF7966"/>
<path d="M72.8302 15.6353C71.9001 15.939 71.6192 16.1893 69.841 14.3101C68.0676 12.4354 64.2463 13.9616 64.2463 13.9616C64.2959 14.0309 64.4099 15.5861 66.0177 17.3342C67.0141 18.4263 68.478 18.4509 69.2736 18.3532C70.8281 18.1768 73.7658 15.3322 72.8302 15.6353Z" fill="#FF7966"/>
<path d="M64.2212 13.9236C64.1825 13.8656 64.1981 13.8886 64.2212 13.9236V13.9236Z" fill="#FF7966"/>
<path d="M64.246 13.9605C64.246 13.9605 64.2341 13.9424 64.221 13.9237C64.2297 13.9361 64.2316 13.9393 64.246 13.9605Z" fill="#FF7966"/>
<path d="M63.2445 10.7764C63.2445 10.7764 66.8377 8.77178 66.5567 6.18064C66.2715 3.59689 66.6435 3.53705 67.4676 2.99952C68.2954 2.46388 64.2631 2.93965 63.1385 4.03235C62.5569 4.59698 61.6423 5.75704 61.8246 7.24553C62.1197 9.61251 63.2197 10.697 63.2445 10.7764Z" fill="#FF7966"/>
<path d="M70.6684 6.74813C70.6684 6.74813 73.6823 5.04032 73.4374 2.86442C73.1827 0.687859 73.4976 0.636715 74.1877 0.185019C74.8809 -0.271221 71.4905 0.15099 70.5486 1.07103C70.0632 1.5506 69.298 2.52797 69.458 3.77577C69.719 5.77472 70.6492 6.67876 70.6684 6.74813Z" fill="#FF7966"/>
<path d="M70.6834 6.80481C70.689 6.82481 70.6896 6.82861 70.6834 6.80481V6.80481Z" fill="#FF7966"/>
<path d="M70.6677 6.74829C70.6677 6.74829 70.6765 6.78079 70.6827 6.80379C70.6802 6.79259 70.6777 6.78199 70.6677 6.74829Z" fill="#FF7966"/>
<path d="M80.3435 9.21817C79.6911 9.728 79.5375 10.0078 77.609 9.01965C75.6812 8.02968 73.0703 10.3285 73.0703 10.3285C73.1336 10.3707 73.6401 11.5662 75.3998 12.5038C76.5041 13.0829 77.6716 12.6897 78.2761 12.3916C79.4536 11.8044 81.0002 8.7141 80.3435 9.21817Z" fill="#FF7966"/>
<path d="M50.1321 8.49845C50.4266 5.89277 50.8023 5.92548 51.7356 5.5857C52.6607 5.2549 48.6074 4.79552 47.2588 5.60589C46.5558 6.02121 45.4056 6.94372 45.2494 8.44726C45.0131 10.8375 45.8521 12.1558 45.8527 12.2377C45.8533 12.2377 49.8302 11.1048 50.1321 8.49845Z" fill="#FF7966"/>
<path d="M58.8329 7.64353C58.7114 5.02633 59.0834 4.99291 59.9434 4.5077C60.8071 4.02247 56.7316 4.25312 55.5282 5.27584C54.9136 5.80455 53.9216 6.90731 54.0208 8.41347C54.1721 10.82 55.2125 11.9714 55.2329 12.0551C55.2318 12.0539 58.9643 10.267 58.8329 7.64353Z" fill="#FF7966"/>
<path d="M55.2317 12.054C55.2317 12.054 55.2386 12.0896 55.2442 12.1177C55.2417 12.1027 55.2398 12.0914 55.2317 12.054Z" fill="#FF7966"/>
<path d="M55.2433 12.1187C55.2483 12.1467 55.2496 12.153 55.2433 12.1187V12.1187Z" fill="#FF7966"/>
<path d="M57.9091 13.5076C66.2673 12.1931 74.8696 8.92117 79.4029 1.18722C79.4848 1.04418 79.3185 0.742961 79.4029 0.601807C74.9009 8.29997 66.2561 11.6832 57.9091 12.9221C54.3936 13.4446 50.8369 13.6683 47.279 13.6488C46.0514 13.6424 43.9048 13.1427 42.7348 13.6091C42.661 13.6368 42.7918 14.1668 42.7348 14.1907C43.9836 13.691 46.2832 14.236 47.6121 14.236C51.0527 14.2304 54.5071 14.0394 57.9091 13.5076Z" fill="#FF7966"/>
</svg>
