<svg width="58" height="97" viewBox="0 0 58 97" fill="none" xmlns="http://www.w3.org/2000/svg">
<path d="M20.6035 10.6182C27.8263 19.1475 27.2846 28.9471 27.104 30.9433C25.2983 30.7618 15.5475 30.0359 7.96355 21.6881C0.199021 12.9773 0.921298 2.81474 1.10187 1C2.90757 1 13.0195 1.90741 20.6035 10.6182Z" fill="#FF7966"/>
<path d="M37.3968 10.6182C30.1739 19.1475 30.7157 28.9471 30.8962 30.9433C32.702 30.7618 42.4527 30.0359 50.0367 21.6881C57.8012 12.9773 57.079 2.81474 56.8984 1C55.0927 1 44.8002 1.90741 37.3968 10.6182Z" stroke="#7E7E7E" stroke-miterlimit="10"/>
<path d="M20.6035 38.7468C27.8263 47.2761 27.2846 57.0757 27.104 59.072C25.2983 58.8905 15.5475 58.1646 7.96355 49.8167C0.199021 41.106 0.921298 30.9434 1.10187 29.1287C2.90757 29.1287 13.0195 30.0361 20.6035 38.7468Z" stroke="#7E7E7E" stroke-miterlimit="10"/>
<path d="M37.3968 38.7468C30.1739 47.2761 30.7157 57.0757 30.8962 59.072C32.702 58.8905 42.4527 58.1646 50.0367 49.8167C57.8012 41.106 57.079 30.9434 56.8984 29.1287C55.0927 29.1287 44.8002 30.0361 37.3968 38.7468Z" fill="#FF7966"/>
<path d="M20.6035 65.2419C27.8263 73.7712 27.2846 83.5709 27.104 85.5671C25.2983 85.3856 15.5475 84.6597 7.96355 76.3119C0.199021 67.6011 0.921298 57.4385 1.10187 55.6238C2.90757 55.6238 13.0195 56.3497 20.6035 65.2419Z" fill="#FF7966"/>
<path d="M37.3968 65.2419C30.1739 73.7712 30.7157 83.5709 30.8962 85.5671C32.702 85.3856 42.4527 84.6597 50.0367 76.3119C57.8012 67.6011 57.079 57.4385 56.8984 55.6238C55.0927 55.6238 44.8002 56.3497 37.3968 65.2419Z" stroke="#7E7E7E" stroke-miterlimit="10"/>
<path d="M28.9092 13.7031V96.9999" stroke="#7E7E7E" stroke-miterlimit="10"/>
</svg>
