<svg width="118" height="97" viewBox="0 0 118 97" fill="none" xmlns="http://www.w3.org/2000/svg">
<path d="M100.965 42.1969C100.717 43.1886 100.469 44.4283 100.221 45.4201C99.7258 47.6516 98.7344 49.6351 97.7431 51.8666C97.2475 52.8583 96.7518 54.098 96.0083 55.0898C91.7952 62.528 85.5995 70.4621 77.1732 78.3963C76.1819 79.388 75.4384 80.1318 74.4471 80.8757C69.4905 85.3386 63.7905 89.8016 57.5947 94.2646L57.099 94.5124L55.6121 95.5043L53.8773 94.2646L53.6294 94.0166C46.4424 89.0578 39.9988 83.851 34.5465 78.3963C33.5552 77.4045 32.5639 76.4128 31.5726 75.421C29.5899 73.4375 27.6073 71.454 25.8725 69.4704C25.129 68.4787 24.1377 67.4869 23.3942 66.4951C16.7028 58.313 12.2419 50.131 10.7549 42.9407C10.5071 41.9489 10.2592 40.7092 10.2592 39.7175C10.0114 36.2463 10.2592 33.023 11.4984 30.0477C11.7462 29.0559 12.2419 28.0642 12.9854 27.0724C13.481 25.8327 14.4723 24.8409 15.2158 23.8492C18.1898 20.13 22.4029 16.9069 27.3595 16.163C30.0856 15.6672 33.0596 16.163 35.7857 17.1548C36.777 17.6507 38.0162 18.1466 39.0075 18.6425C42.7249 20.626 46.1945 23.6012 49.4163 27.8162C50.4076 29.0559 51.1511 30.2957 52.1424 31.5354C53.6294 33.7668 54.8686 36.2462 55.8599 38.9736C58.586 32.5271 62.3035 27.0724 66.5166 23.1054C67.5079 22.3615 68.2514 21.3698 69.2427 20.8739C74.1993 17.1548 79.4037 15.6672 84.3603 16.163C92.043 17.4028 97.991 24.0971 100.221 30.0477C100.469 30.5436 100.717 31.0395 100.717 31.7833C100.965 33.023 101.213 34.0148 101.213 35.2545C101.461 37.9818 101.213 39.9654 100.965 42.1969Z" stroke="#7E7E7E" stroke-miterlimit="10"/>
<path d="M37.5195 73.6852C37.5195 74.1811 37.2717 74.677 37.2717 74.9249C37.0239 75.9167 36.776 76.6605 36.2804 77.6523C36.0325 78.1482 35.7847 78.6441 35.5369 79.14C33.8021 82.1153 31.076 85.5864 27.8542 88.8097C27.3585 89.0576 27.1107 89.5535 26.615 89.8014C24.6324 91.785 22.1541 93.5206 19.6758 95.2562L19.428 95.5041L18.6845 96L17.941 95.5041C14.967 93.5206 12.2409 91.2891 10.0104 89.0576C9.51475 88.5617 9.26692 88.3138 8.77126 87.8179C8.02777 87.0741 7.03645 86.0823 6.54079 85.3385C6.29296 84.8426 5.79732 84.5947 5.54949 84.0988C2.82336 80.6276 1.08854 77.4044 0.345049 74.4291C0.345049 73.9332 0.0972228 73.4373 0.0972228 73.1894C-0.150607 71.7018 0.0972341 70.462 0.592894 69.2223C0.840723 68.7264 0.840716 68.4785 1.08855 67.9826C1.33638 67.4867 1.58421 66.9908 2.07987 66.495C3.31902 65.0073 5.05383 63.7676 7.03646 63.2717C8.27561 63.0238 9.26694 63.2717 10.5061 63.7676C11.0017 64.0155 11.4974 64.0156 11.9931 64.2635C13.48 65.0073 14.967 66.247 16.2062 67.9826C16.7018 68.4785 16.9496 68.9744 17.1975 69.4703C17.6931 70.462 18.1888 71.4538 18.6845 72.4455C19.6758 69.7182 21.4106 67.4867 23.1454 65.999C23.6411 65.7511 23.8889 65.2552 24.3845 65.0073C26.3672 63.5196 28.5977 62.7759 30.5803 63.0238C33.8021 63.5197 36.2804 66.247 37.0239 68.7264C37.0239 68.9744 37.2717 69.2223 37.2717 69.4703C37.5195 69.9662 37.5195 70.462 37.5195 70.9579C37.7673 71.9496 37.7673 72.6935 37.5195 73.6852Z" fill="#FF7966"/>
<path d="M117.814 10.7084C117.814 11.2043 117.567 11.7002 117.567 11.9481C117.319 12.9399 117.071 13.6837 116.575 14.6755C116.327 15.1714 116.08 15.6673 115.832 16.1632C114.097 19.1385 111.371 22.6096 108.149 25.8329C107.653 26.0808 107.406 26.5767 106.91 26.8246C104.927 28.8081 102.449 30.5438 99.9707 32.2794L99.7229 32.5272L98.9794 33.0231L98.2359 32.5272C95.2619 30.5437 92.5358 28.3123 90.3053 26.0808C89.8097 25.5849 89.5618 25.337 89.0662 24.8411C88.3227 24.0973 87.3314 23.1055 86.8357 22.3617C86.5879 21.8658 86.0922 21.6179 85.8444 21.122C83.1183 17.6508 81.3835 14.4275 80.64 11.4522C80.64 10.9563 80.3921 10.4605 80.3921 10.2125C80.1443 8.72487 80.3921 7.48523 80.8878 6.24552C81.1356 5.74964 81.1356 5.50169 81.3835 5.00581C81.6313 4.50993 81.8791 4.01403 82.3748 3.51815C83.6139 2.0305 85.3488 0.79075 87.3314 0.294867C88.5705 0.0469258 89.5618 0.294897 90.801 0.79078C91.2966 1.03872 91.7923 1.03875 92.288 1.28669C93.775 2.03052 95.2619 3.27022 96.5011 5.00581C96.9967 5.50169 97.2446 5.99752 97.4924 6.4934C97.9881 7.48516 98.4837 8.47696 98.9794 9.46873C99.9707 6.74137 101.706 4.50988 103.44 3.02224C103.936 2.7743 104.184 2.27843 104.679 2.03049C106.662 0.542839 108.893 -0.200955 110.875 0.0469863C114.097 0.542869 116.575 3.27019 117.319 5.74961C117.319 5.99755 117.567 6.24546 117.567 6.4934C117.814 6.98928 117.814 7.48518 117.814 7.98106C118.062 8.97283 118.062 9.71667 117.814 10.7084Z" fill="#FF7966"/>
</svg>
