<svg width="90" height="96" viewBox="0 0 90 96" fill="none" xmlns="http://www.w3.org/2000/svg">
<path d="M74.4643 39.5628C77.6854 38.5021 77.5152 29.2157 74.0844 18.8212C70.6536 8.42659 65.2613 0.860006 62.0402 1.92072C58.8192 2.98143 58.9892 12.2678 62.4201 22.6623C65.8509 33.0569 71.2433 40.6235 74.4643 39.5628Z" stroke="#7E7E7E" stroke-miterlimit="10"/>
<path d="M16.589 67.6889C16.589 71.9356 13.046 75.4745 8.79448 75.4745C4.54295 75.4745 1 71.9356 1 67.6889C1 63.4422 4.54295 59.9033 8.79448 59.9033C13.2822 59.9033 16.589 63.4422 16.589 67.6889Z" stroke="#7E7E7E" stroke-miterlimit="10"/>
<path d="M89.1009 60.611C86.7389 64.8577 80.5978 66.981 73.7481 65.5654L68.0795 87.0348H71.15C73.9843 87.0348 76.3463 89.394 76.3463 92.2252V95.7641H36.193C27.2175 96.9437 17.0611 91.2815 12.1009 83.4959C5.25125 72.4073 9.73899 58.7236 16.5887 51.1739C24.147 42.9165 34.5396 42.2087 36.4291 41.9727C46.8218 41.5009 53.9077 46.6913 55.7972 48.1068C56.0334 47.3991 60.285 39.1416 69.4966 37.726C70.2052 37.726 77.5273 36.7823 83.196 41.9727C86.0303 44.5679 87.2113 47.3991 87.6837 48.8146C89.1009 51.1739 91.2267 56.3643 89.1009 60.611Z" fill="#FF7966"/>
<path d="M72.5671 19.0878C75.6377 8.4711 80.5978 0.685525 83.9045 1.62923C87.2113 2.57294 87.4475 11.7741 84.377 22.3908C81.3064 33.0075 76.3463 40.7931 73.0396 39.8494C69.969 38.9057 69.7328 29.7045 72.5671 19.0878Z" fill="#FF7966"/>
<path d="M79.6527 50.7022C79.6527 51.4099 78.9441 52.1177 78.2356 52.1177C77.527 52.1177 76.8184 51.4099 76.8184 50.7022C76.8184 49.9944 77.527 49.2866 78.2356 49.2866C78.9441 49.2866 79.6527 49.9944 79.6527 50.7022Z" fill="#393939"/>
<path d="M37.6104 62.0263C38.5551 62.0263 44.6962 61.5544 48.9478 66.273C53.4355 70.9915 52.2545 77.5975 52.0183 79.7208C51.5459 83.2597 49.8926 85.8549 48.9478 87.5064C49.6564 87.7423 52.0183 88.4501 53.9079 90.8094C55.5613 92.9327 55.5613 95.0561 55.5613 95.9998" stroke="#393939" stroke-miterlimit="10"/>
</svg>
