<svg width="61" height="96" viewBox="0 0 61 96" fill="none" xmlns="http://www.w3.org/2000/svg">
<path d="M60.2791 65.6744C60.2791 82.4186 46.6977 95.814 30.1395 95.814C13.5814 95.814 0 82.2326 0 65.6744C0 52.093 8.93025 40.5581 21.2093 36.8372V0H38.8837V36.8372C51.3489 40.7442 60.2791 52.093 60.2791 65.6744Z" fill="#FF7966"/>
<path d="M34.2334 24V36.8372C46.5125 40.5581 55.4427 52.093 55.4427 65.6744C55.4427 66.4186 55.4427 67.1628 55.4427 67.907" stroke="#393939" stroke-width="0.5" stroke-miterlimit="10"/>
<path d="M16.3733 70.6976C18.6338 70.6976 20.4663 68.8651 20.4663 66.6046C20.4663 64.3441 18.6338 62.5116 16.3733 62.5116C14.1128 62.5116 12.2803 64.3441 12.2803 66.6046C12.2803 68.8651 14.1128 70.6976 16.3733 70.6976Z" stroke="#393939" stroke-width="0.5" stroke-miterlimit="10"/>
<path d="M47.2561 72.186C49.5166 72.186 51.3491 70.3535 51.3491 68.093C51.3491 65.8325 49.5166 64 47.2561 64C44.9956 64 43.1631 65.8325 43.1631 68.093C43.1631 70.3535 44.9956 72.186 47.2561 72.186Z" stroke="#393939" stroke-width="0.5" stroke-miterlimit="10"/>
<path d="M35.1643 85.3954C37.0138 85.3954 38.5131 83.8961 38.5131 82.0466C38.5131 80.1971 37.0138 78.6978 35.1643 78.6978C33.3148 78.6978 31.8154 80.1971 31.8154 82.0466C31.8154 83.8961 33.3148 85.3954 35.1643 85.3954Z" stroke="#393939" stroke-width="0.5" stroke-miterlimit="10"/>
<path d="M5.76855 54.3254H49.8616" stroke="#393939" stroke-width="0.5" stroke-miterlimit="10"/>
</svg>
