<svg width="98" height="98" viewBox="0 0 98 98" fill="none" xmlns="http://www.w3.org/2000/svg">
<path d="M96.9539 49.3213C96.9539 51.9949 96.7301 54.8913 96.2828 57.342C93.5988 73.3834 82.8627 86.7513 68.3242 92.9896C62.5089 95.6631 55.7988 96.9999 49.0887 96.9999C40.813 96.9999 32.9846 94.9947 26.2746 91.2072C15.0912 85.1916 6.59177 74.943 3.01307 62.6892C1.67106 58.456 1 53.7773 1 49.0985C1 39.2954 3.90769 30.3836 8.8284 22.8085C17.3278 9.88626 32.09 1.19714 48.8651 1.19714C53.5622 1.19714 58.0355 1.86552 62.5088 3.2023C68.3242 4.98468 73.916 7.65827 78.613 11.4458C86.2177 17.4613 92.0331 25.4821 94.9408 35.0623C96.0591 39.5183 96.9539 44.4198 96.9539 49.3213Z" stroke="#7E7E7E" stroke-width="0.5" stroke-miterlimit="10"/>
<path d="M64.9695 13.4511C64.2985 16.5702 62.5092 19.4666 58.9305 19.4666C56.4702 19.4666 54.0098 18.7982 51.5494 19.2438C47.7471 19.9122 44.392 22.1402 43.721 26.3734C43.2737 28.8241 43.9447 31.4977 42.8264 33.7256C42.1554 34.8396 39.695 35.7308 38.353 35.0624C37.4583 34.8396 36.7873 33.5028 36.1163 32.8345C35.4453 31.7205 34.998 30.3837 34.327 29.2697C32.5377 26.3733 29.6299 25.2593 26.2749 26.5961C24.7092 27.2645 23.3672 28.6013 22.4725 29.938C21.1305 31.9432 20.2358 36.8448 16.8808 37.0676C10.1708 37.2904 6.81572 25.7049 9.94708 21.249C15.7625 13.2283 24.2619 7.2128 33.656 4.09364C39.2477 2.31127 45.0631 1.64287 50.8785 1.86567C54.0098 2.08847 58.0359 2.08843 60.9435 3.42521C64.7459 4.98479 65.4169 10.3319 64.9695 13.4511C64.9695 13.8967 65.6406 13.8967 65.6406 13.4511C65.8643 10.7775 65.4169 8.32676 64.2986 5.87599C62.7329 2.75683 61.6145 2.75686 58.2595 1.86567C52.4441 0.751686 46.4051 0.751673 40.5897 1.64286C29.4063 3.64803 19.1175 9.44073 11.9601 17.907C10.8418 19.2438 9.05244 21.0262 8.38144 22.8086C7.71043 25.2594 8.82879 29.4925 9.72346 31.7205C11.0655 34.8396 15.7625 39.5183 19.3412 36.8448C20.9069 35.7308 21.5779 33.28 22.4725 31.4977C24.9329 27.0417 30.7483 23.9226 33.8796 29.4925C35.4453 32.1661 37.9057 38.1815 41.9317 35.508C43.9447 34.1712 44.1684 31.2748 44.3921 29.0469C44.3921 26.3733 44.6158 23.9225 46.6288 22.1402C48.4181 20.3578 51.1021 19.6894 53.5624 19.6894C56.4701 19.6894 59.6015 20.8034 62.2856 19.2438C64.2986 18.1298 65.1933 15.679 65.6406 13.4511C65.6406 13.2283 65.1932 13.0055 64.9695 13.4511Z" fill="#7E7E7E"/>
<path d="M43.0484 85.6373C39.4697 89.4249 34.1017 90.9845 29.1809 91.2073C26.7206 91.4301 25.1549 90.5389 22.9183 89.2021C21.1289 88.0881 19.3396 86.7514 17.5502 85.1918C11.2875 79.6219 6.36677 72.4923 3.68275 64.6944C2.78807 62.2437 4.57743 60.4613 6.14311 58.679C7.70879 56.8966 9.72181 55.1142 11.7348 53.7774C13.5242 52.6634 15.7608 51.7722 17.9975 51.995C20.6815 52.4406 21.5762 54.8914 22.6946 57.1193C24.0366 59.7929 26.497 62.0209 29.852 60.9069C32.9834 59.7929 36.1147 52.6634 39.6934 57.565C42.6011 61.5753 39.0224 66.9224 40.8117 71.3783C41.7064 73.3835 43.0484 74.9431 44.1668 76.7255C45.7324 79.399 45.2851 82.741 43.0484 85.6373C42.8248 85.8601 43.272 86.5286 43.4957 86.083C46.4034 82.5182 46.4034 78.5079 43.9431 74.7203C42.1537 72.0467 40.8117 70.0415 41.0354 66.6996C41.2591 64.2488 41.93 61.7981 41.4827 59.3473C40.588 56.2282 37.904 53.7774 34.7727 55.7825C33.207 56.8965 32.3123 58.9017 30.523 59.7929C28.7336 60.6841 26.497 60.4613 25.1549 58.9017C24.0366 57.7877 23.5893 56.2282 22.9183 54.8914C17.9975 45.3111 7.03776 56.0053 3.45906 61.3525C3.2354 61.7981 2.78809 62.2437 2.78809 62.9121C2.78809 63.8033 3.68277 65.5856 4.13011 66.6996C5.02478 68.9276 5.91945 71.1556 7.26146 73.1608C9.49814 77.1711 12.6295 80.9587 15.9845 84.3006C17.7739 86.083 19.7869 87.6425 22.0236 89.2021C23.1419 89.8705 24.2603 90.5389 25.3786 91.2073C26.7206 91.8757 27.3916 91.8757 28.9573 91.8757C34.3253 91.6529 40.3644 90.3161 44.1668 86.083C43.7194 85.6374 43.2721 85.1917 43.0484 85.6373Z" fill="#7E7E7E"/>
<path d="M95.8363 57.3421C94.4943 65.14 91.1392 72.4923 86.4422 78.7306C84.2055 81.627 81.7452 84.0777 78.8375 86.3057C77.2718 87.4197 75.7061 88.5337 74.1404 89.6477C72.7984 90.5389 70.5617 92.0984 68.9961 92.544C67.4304 92.7668 65.641 89.4248 64.97 88.0881C63.8516 86.0829 62.957 84.0777 62.286 81.8498C61.615 79.6218 61.1677 77.3938 60.944 75.1659C60.7203 73.6063 61.3913 72.0467 63.1807 71.8239C64.0753 71.8239 64.7464 71.8239 65.641 71.6011C68.7724 70.9327 70.1144 67.8135 70.338 64.9172C70.5617 60.2384 67.654 54.6685 72.7984 51.7722C77.4954 49.0986 80.8504 53.3318 84.8765 55.3369C85.9948 56.0053 87.3369 56.2281 88.6789 56.0053C90.0209 55.7825 90.9156 55.1141 92.2576 55.1141C94.2706 55.1141 95.3889 56.6737 96.2836 58.2333C96.5073 58.6789 97.1783 58.2332 96.9546 57.7876C96.06 56.2281 94.7179 54.4457 92.7049 54.4457C91.3629 54.4457 90.2446 55.1141 89.1262 55.3369C87.3369 55.7825 85.7712 55.3369 84.2055 54.4457C80.4031 52.2177 76.8244 48.8758 72.1274 51.5494C66.312 55.1141 70.5617 61.798 69.4434 66.9223C68.996 69.1503 67.4303 70.9327 64.97 71.3783C63.8516 71.6011 62.7333 71.3783 61.8386 71.8239C59.8256 72.7151 60.273 75.1658 60.4966 76.9482C61.3913 83.1865 64.0753 89.2021 68.325 94.1036C68.325 94.3264 68.5487 94.1036 68.7724 94.1036C83.5345 87.6425 94.0469 74.0519 96.9546 58.2333C96.5073 57.1193 95.8363 56.8965 95.8363 57.3421Z" fill="#7E7E7E"/>
<path d="M94.7177 34.8398C92.0337 35.7309 88.2313 34.617 85.7709 33.0574C83.0869 31.4978 83.7579 28.1558 81.9686 25.9279C80.1792 23.6999 77.4952 22.5859 75.9295 20.1351C73.6928 16.7932 76.1532 13.8968 78.6135 11.6689C78.3899 11.6689 78.3898 11.6689 78.1662 11.6689C85.7709 17.6844 91.3626 25.7051 94.2703 35.0626C94.494 35.5082 94.9413 35.2854 94.9413 34.8398C92.0336 25.4823 86.2183 17.2388 78.6135 11.2233C78.3899 11.0005 78.3898 11.0005 78.1662 11.2233C75.9295 13.2284 73.6928 15.902 74.8111 19.0211C75.9295 21.9175 79.0609 23.4771 81.0739 25.7051C82.4159 27.2646 82.6396 28.8242 83.0869 30.6066C83.5342 31.9434 84.4289 33.0574 85.5473 33.7258C88.2313 35.0626 91.81 36.3993 94.7177 35.5081C95.165 35.2853 94.9414 34.617 94.7177 34.8398Z" fill="#7E7E7E"/>
<path d="M65.8633 49.767V50.4353C65.8633 50.6581 65.8633 50.8809 65.8633 51.3265C65.4159 72.715 52.2195 86.0829 49.5355 88.5336C46.8515 86.0829 33.4314 72.2694 33.2077 50.4353C32.984 27.9328 47.0751 13.6738 49.5355 11.223C51.1012 12.5598 56.6929 18.3526 60.7189 27.2644C60.9426 27.4872 60.9426 27.9328 61.1663 28.1556C62.2846 30.6064 63.1793 33.5028 64.0739 36.3991C64.0739 36.8447 64.2976 37.0675 64.2976 37.5131C65.1923 41.5235 65.6396 45.311 65.8633 49.767Z" fill="#FF7966"/>
<path d="M65.864 49.767V50.4353C65.864 50.6581 65.864 50.8809 65.864 51.3265L49.9835 70.9327L49.3125 70.2643L65.864 49.767Z" fill="#393939"/>
<path d="M64.2984 37.7359L49.7599 55.5597L49.0889 54.8913L64.0747 36.3992C64.0747 37.0676 64.2984 37.2903 64.2984 37.7359Z" fill="#393939"/>
<path d="M61.167 28.3785L49.7599 42.4147L49.0889 41.7463L60.7197 27.4873C60.9433 27.7101 60.9434 27.9329 61.167 28.3785Z" fill="#393939"/>
<path d="M49.5352 11.223V88.5336" stroke="#393939" stroke-width="0.5" stroke-miterlimit="10"/>
</svg>
