<svg width="65" height="96" viewBox="0 0 65 96" fill="none" xmlns="http://www.w3.org/2000/svg">
<path d="M58.4236 59.6424L58.0151 60.4595C57.8109 60.868 57.8109 61.0722 57.6066 61.2765C46.1683 85.1743 24.5173 93.753 20.4321 95.1828C18.7981 90.8935 10.6279 68.6297 21.2492 43.9148C32.2789 18.1786 55.5641 9.19138 59.4449 7.7616C60.4662 10.2127 63.7343 19.4041 63.9386 31.6595C63.9386 32.068 63.9386 32.4765 63.9386 32.885C63.9386 36.3573 63.7343 39.8297 62.9173 43.7105C62.9173 44.119 62.713 44.7318 62.713 45.1403C61.896 49.8382 60.4662 54.7403 58.4236 59.6424Z" stroke="#7E7E7E" stroke-miterlimit="10"/>
<path d="M58.4253 59.6423L58.0167 60.4594C57.8125 60.8679 57.8125 61.0721 57.6083 61.2764L29.8295 75.37L29.2168 74.3487L58.4253 59.6423Z" fill="#7E7E7E"/>
<path d="M62.7129 45.3443L37.3853 58.2124L36.7725 57.1911L62.9172 43.9146C62.9172 44.3231 62.9172 44.7316 62.7129 45.3443Z" fill="#7E7E7E"/>
<path d="M63.9402 33.0893L44.1274 43.302L43.5146 42.2808L63.9402 31.8638C63.9402 32.068 63.9402 32.6808 63.9402 33.0893Z" fill="#7E7E7E"/>
<path d="M59.4455 7.7616L20.2285 95.1828" stroke="#7E7E7E" stroke-miterlimit="10"/>
<path d="M40.2453 47.7957V48.817C40.2453 49.2255 40.2453 49.4297 40.2453 49.8383C39.6326 76.1872 23.2921 92.9361 20.2283 96C16.9602 92.9361 0.415522 75.7787 0.00701166 48.817C-0.401499 20.834 17.1644 3.0638 20.2283 0.204224C22.0666 2.04252 29.0113 8.98721 34.1177 20.2212C34.3219 20.6298 34.5261 21.0382 34.7304 21.4468C36.1602 24.5106 37.3857 27.9829 38.2028 31.6595C38.407 32.068 38.407 32.6808 38.6112 33.0893C39.6325 37.5829 40.2453 42.4851 40.2453 47.7957Z" fill="#FF7966"/>
<path d="M40.246 47.7959V48.8172C40.246 49.2257 40.246 49.4299 40.246 49.8385L20.6375 74.1448L19.6162 73.3278L40.246 47.7959Z" fill="#393939"/>
<path d="M38.6119 32.8852L20.6375 55.149L19.6162 54.332L38.2035 31.4554C38.4077 31.864 38.4077 32.4767 38.6119 32.8852Z" fill="#393939"/>
<path d="M34.7311 21.2428L20.6375 38.6045L19.6162 37.7874L33.9141 20.0172C34.3226 20.4257 34.5268 20.8342 34.7311 21.2428Z" fill="#393939"/>
<path d="M20.2285 0V95.7957" stroke="#393939" stroke-miterlimit="10"/>
</svg>
